<mxfile host="app.diagrams.net" modified="2024-02-06T06:17:23.765Z" agent="Mozilla/5.0 (Windows NT 10.0; Win64; x64) AppleWebKit/537.36 (KHTML, like Gecko) Chrome/121.0.0.0 Safari/537.36" etag="SIaSwZAPaMaLEn6DIAvU" version="23.1.1" type="github">
  <diagram name="Halaman-1" id="6v_JoEdn9gjm4LWyvMf0">
    <mxGraphModel dx="880" dy="468" grid="1" gridSize="10" guides="1" tooltips="1" connect="1" arrows="1" fold="1" page="1" pageScale="1" pageWidth="827" pageHeight="1169" math="0" shadow="0">
      <root>
        <mxCell id="0" />
        <mxCell id="1" parent="0" />
        <mxCell id="UYg-ZGEk_u227HuyF182-1" value="" style="rounded=0;whiteSpace=wrap;html=1;rotation=90;" parent="1" vertex="1">
          <mxGeometry x="187.73" y="264.78" width="495.44" height="262.86" as="geometry" />
        </mxCell>
        <mxCell id="UYg-ZGEk_u227HuyF182-2" value="" style="ellipse;whiteSpace=wrap;html=1;" parent="1" vertex="1">
          <mxGeometry x="349.66" y="220" width="170" height="67.77" as="geometry" />
        </mxCell>
        <mxCell id="UYg-ZGEk_u227HuyF182-4" value="" style="ellipse;whiteSpace=wrap;html=1;" parent="1" vertex="1">
          <mxGeometry x="350.44" y="320" width="170" height="70" as="geometry" />
        </mxCell>
        <mxCell id="UYg-ZGEk_u227HuyF182-5" value="" style="ellipse;whiteSpace=wrap;html=1;" parent="1" vertex="1">
          <mxGeometry x="350.44" y="420" width="170" height="70" as="geometry" />
        </mxCell>
        <mxCell id="UYg-ZGEk_u227HuyF182-6" value="" style="ellipse;whiteSpace=wrap;html=1;" parent="1" vertex="1">
          <mxGeometry x="350.44" y="530" width="170" height="70" as="geometry" />
        </mxCell>
        <mxCell id="UYg-ZGEk_u227HuyF182-8" value="Perpus-Digital" style="text;html=1;strokeColor=none;fillColor=none;align=center;verticalAlign=middle;whiteSpace=wrap;rounded=0;" parent="1" vertex="1">
          <mxGeometry x="387.7800000000001" y="170" width="95.34" height="30" as="geometry" />
        </mxCell>
        <mxCell id="UYg-ZGEk_u227HuyF182-9" value="Pengunjung&lt;br&gt;" style="shape=umlActor;verticalLabelPosition=bottom;verticalAlign=top;html=1;outlineConnect=0;fillColor=#e1d5e7;strokeColor=#9673a6;" parent="1" vertex="1">
          <mxGeometry x="170" y="340" width="50" height="80" as="geometry" />
        </mxCell>
        <mxCell id="UYg-ZGEk_u227HuyF182-10" value="Pustakawan" style="shape=umlActor;verticalLabelPosition=bottom;verticalAlign=top;html=1;outlineConnect=0;fillColor=#fad9d5;strokeColor=#ae4132;" parent="1" vertex="1">
          <mxGeometry x="650.0000000000001" y="350" width="50" height="80" as="geometry" />
        </mxCell>
        <mxCell id="UYg-ZGEk_u227HuyF182-11" value="Form Pengunjung" style="text;html=1;strokeColor=none;fillColor=none;align=center;verticalAlign=middle;whiteSpace=wrap;rounded=0;" parent="1" vertex="1">
          <mxGeometry x="372.38" y="243.32999999999998" width="124.55" height="21.11" as="geometry" />
        </mxCell>
        <mxCell id="UYg-ZGEk_u227HuyF182-12" value="Pencarian Buku" style="text;html=1;strokeColor=none;fillColor=none;align=center;verticalAlign=middle;whiteSpace=wrap;rounded=0;" parent="1" vertex="1">
          <mxGeometry x="386.99" y="340" width="95.34" height="30" as="geometry" />
        </mxCell>
        <mxCell id="UYg-ZGEk_u227HuyF182-13" value="Detail Buku" style="text;html=1;strokeColor=none;fillColor=none;align=center;verticalAlign=middle;whiteSpace=wrap;rounded=0;" parent="1" vertex="1">
          <mxGeometry x="396.99" y="440" width="75.34" height="30" as="geometry" />
        </mxCell>
        <mxCell id="UYg-ZGEk_u227HuyF182-14" value="Laporan Statistik" style="text;html=1;strokeColor=none;fillColor=none;align=center;verticalAlign=middle;whiteSpace=wrap;rounded=0;" parent="1" vertex="1">
          <mxGeometry x="383.95" y="550" width="103.01" height="30" as="geometry" />
        </mxCell>
        <mxCell id="UYg-ZGEk_u227HuyF182-20" value="" style="endArrow=none;html=1;rounded=0;" parent="1" source="UYg-ZGEk_u227HuyF182-9" edge="1">
          <mxGeometry width="50" height="50" relative="1" as="geometry">
            <mxPoint x="390" y="400" as="sourcePoint" />
            <mxPoint x="350" y="355" as="targetPoint" />
          </mxGeometry>
        </mxCell>
        <mxCell id="UYg-ZGEk_u227HuyF182-21" value="" style="endArrow=none;html=1;rounded=0;" parent="1" source="UYg-ZGEk_u227HuyF182-9" edge="1">
          <mxGeometry width="50" height="50" relative="1" as="geometry">
            <mxPoint x="250" y="400" as="sourcePoint" />
            <mxPoint x="350" y="450" as="targetPoint" />
          </mxGeometry>
        </mxCell>
        <mxCell id="UYg-ZGEk_u227HuyF182-22" value="" style="endArrow=none;html=1;rounded=0;" parent="1" edge="1">
          <mxGeometry width="50" height="50" relative="1" as="geometry">
            <mxPoint x="230" y="350" as="sourcePoint" />
            <mxPoint x="280" y="260" as="targetPoint" />
          </mxGeometry>
        </mxCell>
        <mxCell id="UYg-ZGEk_u227HuyF182-23" value="" style="endArrow=none;html=1;rounded=0;exitX=1;exitY=0.5;exitDx=0;exitDy=0;" parent="1" source="UYg-ZGEk_u227HuyF182-4" edge="1">
          <mxGeometry width="50" height="50" relative="1" as="geometry">
            <mxPoint x="390" y="400" as="sourcePoint" />
            <mxPoint x="630" y="380" as="targetPoint" />
          </mxGeometry>
        </mxCell>
        <mxCell id="UYg-ZGEk_u227HuyF182-25" value="" style="endArrow=none;html=1;rounded=0;exitX=0.997;exitY=0.414;exitDx=0;exitDy=0;exitPerimeter=0;" parent="1" source="UYg-ZGEk_u227HuyF182-5" edge="1">
          <mxGeometry width="50" height="50" relative="1" as="geometry">
            <mxPoint x="390" y="400" as="sourcePoint" />
            <mxPoint x="630" y="400" as="targetPoint" />
          </mxGeometry>
        </mxCell>
        <mxCell id="UYg-ZGEk_u227HuyF182-27" value="" style="endArrow=none;html=1;rounded=0;exitX=0.939;exitY=0.286;exitDx=0;exitDy=0;exitPerimeter=0;" parent="1" source="UYg-ZGEk_u227HuyF182-6" edge="1">
          <mxGeometry width="50" height="50" relative="1" as="geometry">
            <mxPoint x="510" y="540" as="sourcePoint" />
            <mxPoint x="640" y="420" as="targetPoint" />
          </mxGeometry>
        </mxCell>
        <mxCell id="UYg-ZGEk_u227HuyF182-29" style="edgeStyle=orthogonalEdgeStyle;rounded=0;orthogonalLoop=1;jettySize=auto;html=1;exitX=0.5;exitY=0;exitDx=0;exitDy=0;entryX=0.587;entryY=-0.033;entryDx=0;entryDy=0;entryPerimeter=0;" parent="1" source="UYg-ZGEk_u227HuyF182-12" target="UYg-ZGEk_u227HuyF182-12" edge="1">
          <mxGeometry relative="1" as="geometry" />
        </mxCell>
        <mxCell id="UYg-ZGEk_u227HuyF182-30" value="" style="endArrow=none;html=1;rounded=0;entryX=1;entryY=0.5;entryDx=0;entryDy=0;" parent="1" target="UYg-ZGEk_u227HuyF182-2" edge="1">
          <mxGeometry width="50" height="50" relative="1" as="geometry">
            <mxPoint x="620" y="260" as="sourcePoint" />
            <mxPoint x="440" y="350" as="targetPoint" />
          </mxGeometry>
        </mxCell>
        <mxCell id="UYg-ZGEk_u227HuyF182-31" value="" style="endArrow=none;html=1;rounded=0;" parent="1" edge="1">
          <mxGeometry width="50" height="50" relative="1" as="geometry">
            <mxPoint x="280" y="260" as="sourcePoint" />
            <mxPoint x="350" y="260" as="targetPoint" />
            <Array as="points">
              <mxPoint x="350" y="260" />
            </Array>
          </mxGeometry>
        </mxCell>
        <mxCell id="UYg-ZGEk_u227HuyF182-33" value="" style="endArrow=none;html=1;rounded=0;" parent="1" edge="1">
          <mxGeometry width="50" height="50" relative="1" as="geometry">
            <mxPoint x="640" y="350" as="sourcePoint" />
            <mxPoint x="620" y="260" as="targetPoint" />
          </mxGeometry>
        </mxCell>
        <mxCell id="UYg-ZGEk_u227HuyF182-34" value="Tsya" style="text;html=1;strokeColor=none;fillColor=none;align=center;verticalAlign=middle;whiteSpace=wrap;rounded=0;" parent="1" vertex="1">
          <mxGeometry x="530" y="640" width="60" height="30" as="geometry" />
        </mxCell>
      </root>
    </mxGraphModel>
  </diagram>
</mxfile>
